<mxfile host="app.diagrams.net" agent="Mozilla/5.0 (Windows NT 10.0; Win64; x64) AppleWebKit/537.36 (KHTML, like Gecko) Chrome/137.0.0.0 Safari/537.36" version="27.1.4">
  <diagram name="Page-1" id="WVWOBkRP359F4I0LVx1T">
    <mxGraphModel dx="1042" dy="562" grid="1" gridSize="10" guides="1" tooltips="1" connect="1" arrows="1" fold="1" page="1" pageScale="1" pageWidth="850" pageHeight="1100" background="none" math="0" shadow="0">
      <root>
        <mxCell id="0" />
        <mxCell id="1" parent="0" />
        <mxCell id="24NvOEG5YZtJkbQ84b_a-13" style="edgeStyle=orthogonalEdgeStyle;rounded=0;orthogonalLoop=1;jettySize=auto;html=1;" edge="1" parent="1" source="24NvOEG5YZtJkbQ84b_a-1" target="24NvOEG5YZtJkbQ84b_a-2">
          <mxGeometry relative="1" as="geometry" />
        </mxCell>
        <mxCell id="24NvOEG5YZtJkbQ84b_a-1" value="Amazon Kinesis Data Streams" style="sketch=0;outlineConnect=0;fontColor=#232F3E;gradientColor=none;strokeColor=#ffffff;fillColor=#232F3E;dashed=0;verticalLabelPosition=middle;verticalAlign=bottom;align=center;html=1;whiteSpace=wrap;fontSize=10;fontStyle=1;spacing=3;shape=mxgraph.aws4.productIcon;prIcon=mxgraph.aws4.kinesis_data_streams;" vertex="1" parent="1">
          <mxGeometry x="20" y="200" width="80" height="120" as="geometry" />
        </mxCell>
        <mxCell id="24NvOEG5YZtJkbQ84b_a-14" style="edgeStyle=orthogonalEdgeStyle;rounded=0;orthogonalLoop=1;jettySize=auto;html=1;" edge="1" parent="1" source="24NvOEG5YZtJkbQ84b_a-2">
          <mxGeometry relative="1" as="geometry">
            <mxPoint x="290" y="260" as="targetPoint" />
          </mxGeometry>
        </mxCell>
        <mxCell id="24NvOEG5YZtJkbQ84b_a-2" value="Amazon Kinesis Data Firehose" style="sketch=0;outlineConnect=0;fontColor=#232F3E;gradientColor=none;strokeColor=#ffffff;fillColor=#232F3E;dashed=0;verticalLabelPosition=middle;verticalAlign=bottom;align=center;html=1;whiteSpace=wrap;fontSize=10;fontStyle=1;spacing=3;shape=mxgraph.aws4.productIcon;prIcon=mxgraph.aws4.kinesis_data_firehose;" vertex="1" parent="1">
          <mxGeometry x="170" y="200" width="80" height="120" as="geometry" />
        </mxCell>
        <mxCell id="24NvOEG5YZtJkbQ84b_a-22" style="edgeStyle=orthogonalEdgeStyle;rounded=0;orthogonalLoop=1;jettySize=auto;html=1;" edge="1" parent="1" source="24NvOEG5YZtJkbQ84b_a-5">
          <mxGeometry relative="1" as="geometry">
            <mxPoint x="542.5" y="390" as="targetPoint" />
            <Array as="points">
              <mxPoint x="543" y="360" />
            </Array>
          </mxGeometry>
        </mxCell>
        <mxCell id="24NvOEG5YZtJkbQ84b_a-5" value="EC2 instance contents" style="points=[[0,0],[0.25,0],[0.5,0],[0.75,0],[1,0],[1,0.25],[1,0.5],[1,0.75],[1,1],[0.75,1],[0.5,1],[0.25,1],[0,1],[0,0.75],[0,0.5],[0,0.25]];outlineConnect=0;gradientColor=none;html=1;whiteSpace=wrap;fontSize=12;fontStyle=0;container=1;pointerEvents=0;collapsible=0;recursiveResize=0;shape=mxgraph.aws4.group;grIcon=mxgraph.aws4.group_ec2_instance_contents;strokeColor=#D86613;fillColor=none;verticalAlign=top;align=left;spacingLeft=30;fontColor=#D86613;dashed=0;" vertex="1" parent="1">
          <mxGeometry x="420" y="40" width="240" height="300" as="geometry" />
        </mxCell>
        <mxCell id="24NvOEG5YZtJkbQ84b_a-6" value="" style="shape=image;verticalLabelPosition=bottom;labelBackgroundColor=default;verticalAlign=top;aspect=fixed;imageAspect=0;image=data:image/png,iVBORw0KGgoAAAANSUhEUgAAAT4AAACfCAMAAABX0UX9AAAAulBMVEX///8AAAD/aUv5+fn/Y0ORkZGmpqb/Z0iKiop1dXUuLi7/XDgNDQ28vLz/YD5/f3//WjX/5eH/inX/saT/bVDLy8vk5OT/yL81NTX/mIby8vK+vr6NjY3/qJr/opL/+Pebm5tCQkKCgoJUVFT/vrP/8/H/3dj/1M3/uK3/7On/hnD/c1j/e2L/gGj/k4D/ysGurq5PT08jIyPo6OheXl7X19dubm4UFBT/19H/nYz/UyodHR1RUVFFRUV+mOhgAAAI0UlEQVR4nO2ca0PiOhCGuUQrVsIdLwgUBUFRwAuuHI///2+dpqV0kiZposD24Dyf3KYp7bvTZDIzaS6HIAiCIAiCIAiCIAiCIAiCIAiCIAiCIAiCIAiCIAiCIAiCIAiCIAiC7IXaXa3/jV7Dbrfxsf27+X8x6rk+1fqdXbfxtEoJIa4z381t/U84d0mB4bj1e/NetQfXKaz79XZ3c5lnWC1EEHc1Mus0uozEY7iN3d5ihqmF6jmhGoQaKdGNDJaQoF+1tuvbzCqPTvD+PdRpqAglw7Quw/WpBTLtNh5c1r++j1vNIIHxOQ9s2r1ci0Kb2rlg3qTRuz5j/z5n+lW/MW8fAkOmhRs+fHMzFzwqJ+G7x3jQI2G3B/+AazFrX1c2lOOjxdLmaGn5vWf5C3RJ/Or1SCSMahK+r4MZw3kMD078bnRs/pOn+Q0n8dFifDRfVnfOGFC+7kY+37Kqq8T72F9VwRkb+RpMPgvn+eKA5AteXhL+/Qh8ESagMAk3XCgee+dDC5363aqGDg/jkOS7Z1MHWbE/G5RXh5+Ezx2x2Tc/ph+bcSJDNOKQ5AsG/sADeUzIwwRczWujUW3ec6iTbHbo4xNhJulaDH2HJV/NDYRY+78JCGXrYUqkjZG37TzZ/OLZIcm3cfd+gI3bcmjyjSQvrR2h+2zMYcnH+SvfMz6LQE1uF/JdtbyKZZft0f+hfMQyXrVV+dqdo9tPv8uL3T1sk6Hx6yudXlzL9W5+a/ItvjZdTu3uYavIZZHwVEhaqlmIC7A9+d7zmZBv7pqaX6Mh+jCOY/tr25OvlA35hOWaBtrr9/i1Gz23/bHDk+/D2PxoXQi7TK1/7PDky9VNzY/plxs7GwO0Wq6FHKB8NWPz899f//zZ+nznIf3aLa/0/HLmc/FW8jptC/n8ngPm5vz5qiza/EWLPpx8Rci2ZDFmZe78uWy0G4b6peaIXit5DTr5ijf8uS+cTb7pLnu0bXVSGZmbX8Flwb07NgCmLte04mnla58lzr4FFx7oLvsXFn3KpZtDqBCNCQMsNeoUqvrl2lIvnk6+YlK9fH4Qn34qad7QTt7KzpEvPYhbnwwnM97bc4NUXM1NWa510tTTyHchPT9e2X7qLrsbgfRIl25R2UG/AcOlTjM4OP5Hu1xLV08lX0c5tC0lZye42Ik+aTSTzgtIoNVgM50Ex7Rhvna6ekr5TlQdouHvSnfV0talMWGeMD/OqbuHzSQ9TPDyffk0rIc1rXzH29XFFDFyQLpc8zlVNkk4Ep7pc3B7+/Z2O/ihfGufRDsptbaqijE9YfKlkYkNnwh5nHBvd1qIlFfjqyNvUck3uC4vX4PDy2N+jl2Pa6+LcrncuQX/O8cbvP17zQHC2xs5dbUCmzYc+nTpJBtVHCuMLGcSLvW48z1OvyvQkplFW8Ad7zrTMMt7vymD5N7tlPUGdDyEoTxdPmHw4pYf8M3Mlnz3gnxhKOpJHk3QJydf4RMLbdbycfPEAjRkS76azPruVKs5baylDB5YXIGeSZs08uX+BW1wIMiWfB/C2BeWbigXc7pIH3TcxHIze/ng6PcOjmdLvgmvlFNgB9VpTKopQ30GDyy22cvXAm1v4Hi25BNHuWDw02SBNVkO4DN/iW328sGRFIZdMiXffWKUoyPZWiRuVubYoBbvYqO9fHDuAFGXbMmXLHZxmqNcX5MEdlVVffB5r8VGe/lgW1blk8XrHf/91STRw8lFwpVGix/Kl9Wx70Hq39FCr6k2P1W4tK3R4jDlU/l3ji4JotrPsWX5oDFn1HEBmXLjpKU/+slLwqF8ntj4M/my6TaPY+Nz6uZZN0VRM5TvRmy0l2+paMuOfFO4X2NinnZzpTuQoLm8iY328sGwPwh9ZUc+bnqlc7DLMs38CrLLQfkSmQd7+RagDWbRMiMfH4wiublrXDQ0kVyOi32KjfbyVRRXy4p8wpYO0s3VmqYDoLQ6EmZpfx4yACtozpYzIl9iZcH8uZnhAChN9sJoqTh3WMsHl7zcGgbId7YdJb5FIiwQxELnyt0cSa1FQBYinxdyD9bywfANlwYC8ok/skdGyYnCZcGo/qxqMgLK0h5cnk0IGtjKB0XiB1I4Jv69zQyyjTFukMoYN02qxiW7YmCEDtZW5HgnTiEfDMgX3+GV+PgD/E/6jMzvquXtdT+wtLZvXYeRS9Qyy85Npj3ErO1NZ1ksFl9bi9IfeFgh32np6LjT8ul4QrXGFfcrC66t4nnXpQG7/l7lk1eWknXh48jgDZakPd7zJijkUyJsflEly3mRd4sqVkCjIa32lOYERqZq8GQ/k0+cHxSn7UwrCWGsgEg2bGymhPFUIWC0EVOS9nhWPFr+ChimpXyJ6gt59eWfHSklI4gVkMJsltzxQuNw1Lwp289Lp91e6F6TxHVVBVZLOGLZyecZ/khilb1DmPGRS/bXLKGfC17KYXI3eZjruFTsh15IH63DPbOVfJ7k7qXmt8cCtdDnC/8W1CHVLrceGxLeAqNgVfA1BEnW6FjyZIFL8i35zuR1U7Ii3T0WqI1pnLLg/D+nOkskgobclvyoSI3N3NKCtWWixM8LjseDnyjfszeQi/eikqQoGWP36EGfy+Vz3AdpCdCwEAuYKl8uV4YPd/a+NqD4tQZecHGtbrHlvfEm9fJ2rKv1Ln9xZ19Uyntcv7E0bhSzi+v36FRZwBJb4LpKo8/mHmXFga/Gic/RohNL8Fo5CbmBsc/KTXxGsd0qe9cnJ9ee726nPsNVa8F+5NpbtNp7XvqCD5FsdsZQot3mt5lEgm79IEOXskPhcAmi9KSwWkUpNZL+Nb4hDQUkZFYPbNFkb9ZhMg6mXodsxOuZbA6frM9fR6l/7/f7cj2waDP//ma/C7b1VlM/+XfArOKPkKo/PJdkNFv3c361eiyq51JCqKv/7GGSj2mVUlqVuzi/ibtJtzux/O4w4/58OP+tcy6CIAiCIAiCIAiCIAiCIAiCIAiCIAiCIAiCIAiCIAiCIAiCIAiCIMiv5j+r4pgrFPvMaAAAAABJRU5ErkJggg==;" vertex="1" parent="24NvOEG5YZtJkbQ84b_a-5">
          <mxGeometry x="45" y="193.75" width="110" height="55" as="geometry" />
        </mxCell>
        <mxCell id="24NvOEG5YZtJkbQ84b_a-11" style="edgeStyle=orthogonalEdgeStyle;rounded=0;orthogonalLoop=1;jettySize=auto;html=1;" edge="1" parent="24NvOEG5YZtJkbQ84b_a-5" source="24NvOEG5YZtJkbQ84b_a-7" target="24NvOEG5YZtJkbQ84b_a-10">
          <mxGeometry relative="1" as="geometry" />
        </mxCell>
        <mxCell id="24NvOEG5YZtJkbQ84b_a-7" value="" style="shape=image;verticalLabelPosition=bottom;labelBackgroundColor=default;verticalAlign=top;aspect=fixed;imageAspect=0;image=data:image/png,iVBORw0KGgoAAAANSUhEUgAAAO0AAADVCAMAAACMuod9AAABklBMVEXt7vIAx9QArUYBfO7kOSHx8vYR4e7/dVcE1lkMtv9RUE/z9PhOTUxHRkVKSUjq6++xsbOWlpdaWVlCQT/BwcS7u75fXl3k5OhUU1Ly7/M+PDr6+//29PIAeO7z8Pfu9vvV1tmNjY4Au/8Asv8AdO4Aqjj/a0h4d3ioqKozMS6ampzQ0dRqamrkMhXkLg3kKQCEhIUL1eIE20vX6u/ry8vs293/akZIz9pzcnMAdfbL2/EDx1K3z/He6ucAqDDmXk/kPynlSjfmZ1rmdGrnf3fni4TomZPpqabqubfC5evrzs7xSCVf0tz0xb+L2eH2uK4nJSHJTU6pbYb+rJ6p2PU9p+W9W2RvrrB4i7jvUjn2d1rFj4Kk3+bkgGnRSUPfg26cdJEHlvUEiPEIm/eFqKbY4/IJpvpqlsqzl40we595TkZJNzYAt8SXvPAAsaw2hk1DZmsAy6ZxqPAClM0CvE0GuXQM0L0DvYwDwIaG5/ACl8sAh90O19CZ4bix5sXR5dyiwfC53Mhpw4eAyZlLunAotFpkno2BAAALEElEQVR4nO2ai3/T1hWAFcONg64kP2RLshQnNk1iy3YSE8hqoAQolNGu7dau3cbWrSMs3QPYxtqV7kFpCPm/e+7Vw5J9pVjkhfmd70ed2FZUfTrnnnvutSUJQRAEQRAEQRAEQRAEQRAEQRAEQRAEQRAEQRAEQRAEQRAEQRAEQRAEQRAEQRAEQd4wCPxbDCHklU9Uqx3hVR0Ti9dXz964cfPm9Xdv3X7vzk/vXto0uXXmE9Xenykcw/UdLeTu+lnGKrC2trYOrF6/fefuZkZlkJ25eGxXeWQs+roRwBuk371zSZpYuHZxZipsRbqe89r66q27hcVJzsFlp8JWWrwk1mXG66u3Nw/29WSnYNwyUnSZ8K2DfH3ZmZO52kOTqgu+76VOTIHstNhKix+k6Z5du5kS3lB2ZgomXI/FD9bSdFfXLyXpDmWnx/Yg3bNJuhHZKbKVFjdXX0E3Kvv2FNlKZHM11fdnH43r1gozU2oLumdTdX8yphuTnflwqmwP0l1ZGdGtSTPJtoSmdp2UHoNANsjmjRTde/lR3ZjszMdRW1IpNVJ0abv0Guiaabr5fDyZ47IzX8RsZbuf4kMH5dO3Bd2bybp50P35UPftEdv3I7akYrd03jcTYppMjBbMwvAnbRmOabIWjVB4/9X3EA4HKSTr5mO6o7IxW9ovm26RSLTcMly3Bect2a7bBM2m7dpNArYt1zVMiTTgfSMt6Y+VFN18RLc2Jhtb8Jl22+n1QM6wO4223aHFX1QLVbdK2267UXQ7TktvNqr6gBKrZ5o967RsgesJutw2v8J0BbLRRQEtuiatug1Cyz2HOK0ypKtDTLvjGAN43iw5Lc0htOOSittwnIbbPU3dtdU1gXHe1/3lokg22lxQYyCZplqitMyyt6MT0rZcW+s4CjyH6QcyGV5vu4WiWrYsiyX96XH9k08/WR/zzYe6AtnodEu6uu66rioTz7ak0r5WNQnEVoZKzeqWbytV7WIFME9Rdv6zc+fPf/6rkVXgjXyo+2uBbWS6pU2VKRTtCi1bEElIZxB1uvDQsiCw2sAJYttwi/BG8xRt5z976xxw/jdx3Xuhbb4jsI2WZJhrCSFUHjiGajUNt+L07WZT10u06xolw+06bL5ltrTvNku2ceqyoPt5bPSupMc2UpLNJp9SoJ9yyqViq1+B7G23+t1OhdBGs9VsUFJsE0j4Jito/f4pjtpQlulGozsM7W8FsrHVrd8uEFalHMqfwe+8dYaf/If3mv/GKWh6RGRHdNNDK14BUV6DX1tqVyKysbE7HLa/E4X2C6Et6TZOWCALI7Kg++n66LD9vUg2aev8NOfRgxiTBd0/rMYTWSw7TZtSPrUro66AP3SDRP5SLPvxIW1Z8aJem3VC6VDbgVCeZ/Hkj0Fw/7geaZKFYzYhkWHKjV059FAFsQopFPs9A9pN2jTKJ9Mzg+xX97fPMLbvP/jqXGg8bKRW/pQgK9yBqxaLlciV046t2kIV0lVVBdBNain6icy+tYsPztTPhNTr2w/eOh/WZVajVr58lCAba6R8mJzqRnRpU5P1ikjFVBVZVTVVLtCyop6ELdnZjrj6xme4MCtULLJJgRWHlsqAFtmuoU1ds0W2tKPKattkBfyEbGs7o6pBhCGl/7x+L7/yl0RXYWhJRZcVWVaHH3OSbqnUEbX/tKcofcf79WRsC0JZP8B/1f+WVJ04oj6K9hWlZcnRaydUvK9K5PCwk7Gdvz+WxkOWHmoPE0csQ/QxtanLaqWkKb0JOkcYtVWxLTnEl3wSmX+8lOxa//s/Hv5zNlsew2pOlRXS0GV9uMMGqwIaOFC+GoAf7AFiW2FLREKcqC2lZrfbNYOECP+cvRXZnI+8PBk7iZGtLz2a25jLPZmdnb2QQVaihqKVqPcYyDasco//UpStjmOWeuVyj/atchnKGTxyhklNpLZh67puG23ef8KfWy0S3EvLCupdoeyddWLm/5Vke/nrqxtzc9/klmdnk3yFywHShah2CYuwFgQB6pZis6SnJVVrVXSNzbBSGR5Z9VY8QlvSKMMcrKlwlGrx/DBtxfYThciK1vLzpKorRqZ030nI43r9KbjOzeVyy09nZ4XCF8RrH5hbFYPy0RtOsaSiyrpnq8kGSLDA0QHEj01Vuofi2xJTU2Td6LQ7BtR2zSS8dKttGtzLoNpDNdQ6WVJ5/rE4tJe/nuOy3+Ryua3ZIRcC5QsXZsWykqTJ/Mp4ZQ7GXdRW1oxqo9EwWZ122Lh1eKMcjltQg9LFXnSqoMtqHW1ryoCfi59A9e+ixpIogy1JyOJH3JWFFvj3rIgEWVL1xdisq5sCW6VHaFhwx2syi55a9G4TGw4sQXjN4wGF/lLxGxce5kxf2ntHmMiXn/iyV7nt8reTy0p0AP2Cl3Sy7Kdf3FaPfhgybstGQvgBArFkjW9DWwoPKGgrfRjvkncuLdP2iLhGXX7qy/JEZozL/idBlgyHK+1oSllgG4uHwBaKeSgRFIHADM7JpnL+f4ADVWHvnWgrjGwoO+fLjudykiy7HFn2FRt6MK6itvzqU2xZONuhLZ+7vWGhUe+gQldn5sPsnhByRZDIS49C2auB7fKTCWVZyoV1EsqNH6UstpIS6TlJEeaxgncg3DmWyC1KoGYTdiPCKjgRNUFFrv8vlA0TGeryt5PJshiowbgcXmoW28KoLZ9vaF+DuwiG8B6kN5vQBxn7atGwvfxdKBsm8ohusiybdobtgmIFDcPhYwulHuYiyBYo83BLoU0rqLKd6VMV0bDd3hDaRgpziixrKeJ4S4PDjVv+xIQzmKbuTbtQtZ2KOtGyY4igkar/d2h7NWqb23pysCyFUChqBNmbb7LYstEebgRAAvvHs8StFlXvkL6mN5ra8KZMgmi2FQ9bL7r7/z9Alk0KyqBgDoE8ZDUrk21skpLloNAVVaXfUni/AqfT2uX4xH0goraxfubZRoIt83363f61hcQTsklBrUZk2H6UktGW91J+1NhGTjCJ8UHiJy+MWSgO2b6bI+wtCguh7qgs84X/knVZWLSYftfrNTJVKchZWW/z3rkNs+wgmM8MJWzOeDHUsn3vav7+uOxOTVr4fiPRlpOsq8gjvRxLbZgUM9nyNZBqNTtNC6qAYgYLW9a36N4z1ownbGIm2wplpVA3yTZJl603R3aNITqKbcbWt/EE1BQ9sA33k/31rcbWt4YZTkZdW9GCO1XQ4YAsrvAnY4m8453a1020zT0X6pKKYYx+C87sGd5Xowy++UCqhhGNPmkZwTemaNMw/FtFSLHHlsBqrxjZnKJ9w6iEgTaMTBVZMAHtBKf2dJNtk3QFO4veS+E7o4dEPvyJfg5EaAGWwIX4B0PRA2jCJmYio11yfWd4bq47VpMj1Uqse5Qc8Z4jiU+3UVnQ3d1Isz0J3aOF/BAdt/Ur8baB6abYTp1urLmoX5kfeXthN9U2t7w7VbrR5mJpTBZ0n199g3QjtiJZpps2cmGdME26Q9uld0SyTDfVdqp0w4+7kmTfKN2gTU6WBd1rL5dTdb+fFt357QNlgYVnW2m+U6Pr2R4gy8L7YjnFd1p0ue3SDwfISsx3L5fsu/VsKnSZ7SSywIK0+yKXFOHp0CXbk8oCCwtkd+/l8pZIeWtvGnQzyDIWgOe7ey/2IcqcqdIl24+zyHow5YVrz3d3n+3tvXj5cn9/n+kuH8PlHTXzr/x1zNpChNf5m7kIgiAIgiAIgiAIgiAIgiAIgiAIgiAIgiAIgiAIgiAIgiAIgiAIgiAIgiAIgiAIMn38CF9rhWCbEavNAAAAAElFTkSuQmCC;" vertex="1" parent="24NvOEG5YZtJkbQ84b_a-5">
          <mxGeometry x="15" y="50" width="100.15" height="90" as="geometry" />
        </mxCell>
        <mxCell id="24NvOEG5YZtJkbQ84b_a-10" value="Amazon RDS" style="sketch=0;outlineConnect=0;fontColor=#232F3E;gradientColor=none;strokeColor=#ffffff;fillColor=#232F3E;dashed=0;verticalLabelPosition=middle;verticalAlign=bottom;align=center;html=1;whiteSpace=wrap;fontSize=10;fontStyle=1;spacing=3;shape=mxgraph.aws4.productIcon;prIcon=mxgraph.aws4.rds;" vertex="1" parent="24NvOEG5YZtJkbQ84b_a-5">
          <mxGeometry x="170" width="70" height="90" as="geometry" />
        </mxCell>
        <mxCell id="24NvOEG5YZtJkbQ84b_a-21" style="edgeStyle=orthogonalEdgeStyle;rounded=0;orthogonalLoop=1;jettySize=auto;html=1;" edge="1" parent="1" source="24NvOEG5YZtJkbQ84b_a-3" target="24NvOEG5YZtJkbQ84b_a-5">
          <mxGeometry relative="1" as="geometry" />
        </mxCell>
        <mxCell id="24NvOEG5YZtJkbQ84b_a-3" value="Amazon S3" style="sketch=0;outlineConnect=0;fontColor=#232F3E;gradientColor=none;strokeColor=#ffffff;fillColor=#232F3E;dashed=0;verticalLabelPosition=middle;verticalAlign=bottom;align=center;html=1;whiteSpace=wrap;fontSize=10;fontStyle=1;spacing=3;shape=mxgraph.aws4.productIcon;prIcon=mxgraph.aws4.s3;" vertex="1" parent="1">
          <mxGeometry x="280" y="210" width="80" height="100" as="geometry" />
        </mxCell>
        <mxCell id="24NvOEG5YZtJkbQ84b_a-8" value="" style="shape=image;verticalLabelPosition=bottom;labelBackgroundColor=default;verticalAlign=top;aspect=fixed;imageAspect=0;image=data:image/png,iVBORw0KGgoAAAANSUhEUgAAAT4AAACfCAMAAABX0UX9AAAAnFBMVEX///8gs+b8///5/////v9Ou+AIsOWh2Oggs+VAtt7z///A5/IwsdyT1Of1//9MueAZrNvZ9vnl+v9evt4Aqdxnxd+04/Hq/v8Vsefg+fsAp9kdrNqr4O2R1OjH7fUArOHS8/mAzeVnxd5YvN04sNel2eeY3+5bttJxv9jg/v9/x9tEs9bG6fLC7/pju9SA1u+t6PLM9vxnyeGM3fD4uitsAAAL9UlEQVR4nO2cDXuiuhLHBSQCooUSeREUqHR3z9ru2XPv9/9udyYhEBBd7fau7b3z6/P0EY0h+WcymbzgbEYQBEEQBEEQBEEQBEEQBEEQBEEQBEEQBEEQBEEQBEEQBEEQBEEQBEEQBEEQxIcgi5fJ4Cq7X1k+H7u85HmhrhY558HinuX5XBTcALZ7eRVzwzEMvrxvmT4Ppp2ifGwjLyO8MNLDfQv1efB8IZhhiyvLlVfNnUv1aZiWz71zqT4NY/lSku8KLLN98QvrM617lO6DU22Oh8VavLwon7c4HOvwXqX8qOxzlhqlK6KTC/KZcVOmKcvvrZ/qAV2PmWY+m63/QGlm1gMq5BhBFF6SrzqIiNBgd41irGJjHw8VvFo2h+Ri0vW3priY4H3IpCwgDK+T9Rn5spqzNlng/YFCnSvrsYSekkYiQC2fL6Zdlqn/B4qaBYaC+V+m5fuSsy7RHeVbH6EYjPEdymewy5PJJTP+hHyWLTuv+Fc6J/LBOw5Tn0Ppo/9+kc5RlHD7RbG0PpB8s0ozLcVQvu4/Gugdh46IsagdMD6OfLNswzvdTq1PfzvlmzsuX60bo4zb1+8tn5kkl0fyS+ztsrOvU/kcKR90bTHm3cT8zWU6JcmNQBXgneXbf/327ev+zSWzCp9Ny9erypri7Q30HjwGRqBcx/vIpxo3/PqXt06+/oZfSnYBcxxnwvrkmyxfXdmWkwZ3zgrnV6WSvL98iu/V8/H4Un27MvkkYcRT5ePGQ4fzS6fnVft9pllnJoJaM6nCKadiZlUVapWzwgtThEdMuA7DV5DvNaxkxiP5rMc+w1AUdSyf96x1zjUkz/pb/vBWf//93fx6uYpjwo1rL7Ry74+tCxwulxoG152et7LdeiimVUR5UJZBs1AFXm3zbJbtmiDggbsbSR/W/pbzII9itQTxbXtcnzO+etskM6/hAQao8D9HGYbyVXUTcM5lhs9bsVg+ki85lNuXtrTLTR7g/TfLtmV/JKuo2Xu3yYcRS8rcuLcO6QKdzkMv+YnTM2O/xK6s+4nwoWyttmxkE5sPRvlzFbT+FDq+ZoFeHbRxJONHmRzmijyeTZPkDt/PKp52Png10+Wbz5JuSsRKyBDCm9WJfAlE3O2wvbe75NyWFX1ehI9Z9XzTpo5py1x4VGmF3eWc+21V5rMih0ZSTg+NY6+mvlr0HGLgyH3b9rmRBkUrn4EtwYI8RxHLTbfUlR2x0XLfz7EWW1nkDdMzHFghxMp+MrOiIAhAc/jfhAP5ZmGDN1IZ8mKTnsqXuAy6lCjDgqNumBzbXBZ3/WORPS5+3LTGAHEAWpoDdaz1rcmlvlGZDK6yjTIcrWhmBEWzX+Hae4UW2YatfJhoVSVJtQJ5Wa2ygMqyZpF5XvIaQU24EAHMPD/jXA+p+K6VZf+A7/sny8SNe/lCmGcytxAZYgALIp/Il4F6Zd2pF0QxJM9iNAWpn1V8/x7ftkIj5FO9azH+brF5GmywgUV4OzU/AQXzTr4wAFtsv27VnL8o+VjUKp8cmBFIi17DS16rm+2h6hz779o/N5BC7rz1+ZMjrwfKBLs+w9Q4lS9rwP5rEysB7cT8bgyJQYLgreHegWlxSbPs3BP2nQVnbDtY8LFiPTRUgwuWs+yjWaiAcKVCPrtT2Dsahisaf1UafNVnCqaTNphsxwy7K0BV93eGD5q240/KB5/zL3qGqTGWD+2TS+tP4GWjmXkF+snssdLzm4L8cDDZHbjAhfBwXNNvfyi1xMzvyxCXfa0UKJ/+5r61ISg++6Y7t1duiIUnNDJ1f69haqN5ZjUohkw/JR90Ia0l8U58LB+qV+7kpyumN/VM7GSXb10WhMmuGs8cQ3eBi3YSHBRdykAXj+vOsoKP2m7ayYLy6Usz5sFgWAMYB4Khj9uwVCxm2zIBglv16sugBldfmJJvwcZOc8OG8lVoe63Br93eCbeA47Yvq3QBnOxqsuTSQa1QPRlmFbIrdyMGRid8OPVdH9Ead6EeHYN8Q19Wy6E1GtlKr0/R9TUTV9CUTjXrm2FKvnZgGWaoy7fP03Z4Aiq42V+j5CcNegvmcLIrOg2qx9wMjd4R/XfJdY2beDSNqAL0N4G7qroPUL5BIPfFwTViGCHKUXzntW9BLyyXbXZ4l1q0m5drfWtCPit3yuVJhpp8qF7QH9kBK/jX09PTpuUJ/pyTIt0ERHoifJGLoWAb1RZeuNAbM1x6xjgk0hSemvpWLtpwyri7emxrN5ZvJaxIXzNROkSGI7oWhH7SMDfC0n3hDmLWvkAm5Hvkp373oMm3x6bo7b3GCNFIDZYKxJXxq8nzJbCJf2q2ZQtzNlLRYF8wDK3QfXc91/lnKhevOARMlCTfybDswRnLh9aHAox7ygad3lx0ugCVeoTB4N8QC4kSRLqvmpAv46cZRl3Y7P4MWg/eOmUh3wlnJzzX0Fmfikc66wuvtT6sTvYciYG8xG9OWR/Kl2jjq/piJI1FuPVCpASr2TDnaIp9GN6HZTdbH8ZkYqqi8gD57MViNWLsjG6g833OpO8zJn3fmbwSEcajTOfkw7ntyFVhwCx9047hQg9e7zDQwTqDlG4fz0/It+485iDDVj4sf4z9V4VZ4Pse3qLSOfSR1+lHXpz4qJFX3FaPEMcjr85rO404Ix8MlMZooMTBUGoCoR84xliMhDj6bmaWLfthy3Ujb8U1+XCuA3EQO8ous59wHm/fTdfjPudy3FcHaS+gMYj7FPO2gFitc/JhmDb8KvQnX3YeGRse0IHMZYBYydqqaHJKvpU+tqgMO/kCYZl1KZzSXI7Ku0Hq2Try3xg2i1lHNyhMzDoCLWN1yqAdoZszsZLse2flw3EBraWLryvudAYGoZ+LywJYZ1HRHRvE3lPygXccmh+GPUq+dp6Naxpi2jHHKd7IV+5K1rzJ90Frax7NfR1kAvqlwxHJLJrpOe/gtEl22frEFFVrlAymqJ31QFjj2GpyDAl9f5jJ5Jy3VhnKFklwgXy8ZIBTbpnoEbI86tZaBCeB/JVcXnGJn57GR5q9leYC+xWXpOlXXL1ITirPyuc1OIUy29pW0CJaI9Ui9pFnL8ATDtZ1ZmfkSyDDYKHuH7psQj4RwcqAEyeEbqVytGCUTP3LZ2XOIeUbTnZnv1zvS9v+3q/3vYDzt4vQs9ZZgaWPQJqz8ok1jtKOE8v0qhqGqFLzRXuOirX32xjGqF9ObxXhvKI8qAylFz9ZLu2HX3CERlDvPdM0k9hmjpFXN+rWlSA9dXoJPpjgdzUvfM4Hkd7+IEcbbXF4HeHqfeC7fh4or3hOvjlO4XH1OXdtH5eh+U7r+RCf94rh0gkfrMWd2Wnb454Dz90HmeFqM16sR0PH4VcsoJk1F6V9eHB9fNVUszdS4e2YuxzvdRijvY4S9zqUszdjuTauOWBrhScEZVuUtmjj89YHJhyJvQZMX/rDGBI9o8rYOhqpOzjNCuPO5EZlduiOfzHIcHKvA4YINbeNfaaiCMY3b+u5grB+p522ZGHnQcl4fijaCm/KbaWnWG5530v3Uc4ZKwN3NSp8lpe9Hy+2fDgZXTdl76dqrjbOQMulyJBvXdzpW/HtUuYVaZZtbrqdNm9xDDhO1vLo7QcLTggj3h7GGJwykJFNt887tSCL7yXVcln1aqzjapimWuoju1fF8WBbuM0lW2oG8/IyG/L43LeatRzcIIEMX2SGZvtJuBxML9f6F7J9DAX4Dcsbk9SBFpf8zimD/0PWhV8avVYnJ6ykXyl+fbD+5iNB73mG6F732T/oi84T8jntuPCOvuJ/hizSzvedtz5x/OCe5/s+Jtrp0skTVr35OXc+XfoRsWx9Knsqn1gh6FcW7nm2+SNy/cl6KeE9H0z4gGRcLdRvLz7XoTQm+QbIBxOMz/FU0YdjPtsHVz7T5pbGB3im7cNR1ceooCcq385Vz/PO6XneX0EP4/8WY/nEoJySfFeC8g0WrByyvhswZRQzWC51UppoXMvJrwgZ9CtCt4APJmi/YRXAFf2G1Q3QL6gRBEEQBEEQBEEQBEEQBEEQBEEQBEEQBEEQBEEQBEEQBEEQBEEQBEEQBEEQBPHn+A+qedLExtR3+gAAAABJRU5ErkJggg==;" vertex="1" parent="1">
          <mxGeometry x="450" y="400" width="180" height="90" as="geometry" />
        </mxCell>
        <mxCell id="24NvOEG5YZtJkbQ84b_a-15" value="Amazon CloudWatch" style="sketch=0;outlineConnect=0;fontColor=#232F3E;gradientColor=none;strokeColor=#ffffff;fillColor=#232F3E;dashed=0;verticalLabelPosition=middle;verticalAlign=bottom;align=center;html=1;whiteSpace=wrap;fontSize=10;fontStyle=1;spacing=3;shape=mxgraph.aws4.productIcon;prIcon=mxgraph.aws4.cloudwatch;" vertex="1" parent="1">
          <mxGeometry x="20" y="380" width="80" height="110" as="geometry" />
        </mxCell>
        <mxCell id="24NvOEG5YZtJkbQ84b_a-25" style="edgeStyle=orthogonalEdgeStyle;rounded=0;orthogonalLoop=1;jettySize=auto;html=1;" edge="1" parent="1" source="24NvOEG5YZtJkbQ84b_a-24" target="24NvOEG5YZtJkbQ84b_a-7">
          <mxGeometry relative="1" as="geometry" />
        </mxCell>
        <mxCell id="24NvOEG5YZtJkbQ84b_a-24" value="AWS Secrets Manager" style="sketch=0;outlineConnect=0;fontColor=#232F3E;gradientColor=none;strokeColor=#ffffff;fillColor=#232F3E;dashed=0;verticalLabelPosition=middle;verticalAlign=bottom;align=center;html=1;whiteSpace=wrap;fontSize=10;fontStyle=1;spacing=3;shape=mxgraph.aws4.productIcon;prIcon=mxgraph.aws4.secrets_manager;" vertex="1" parent="1">
          <mxGeometry x="670" y="180" width="60" height="102.5" as="geometry" />
        </mxCell>
        <mxCell id="24NvOEG5YZtJkbQ84b_a-26" style="edgeStyle=orthogonalEdgeStyle;rounded=0;orthogonalLoop=1;jettySize=auto;html=1;entryX=0.124;entryY=0.983;entryDx=0;entryDy=0;entryPerimeter=0;" edge="1" parent="1" source="24NvOEG5YZtJkbQ84b_a-24" target="24NvOEG5YZtJkbQ84b_a-6">
          <mxGeometry relative="1" as="geometry" />
        </mxCell>
      </root>
    </mxGraphModel>
  </diagram>
</mxfile>
